# xmcd CD database file
#
# Track frame offsets:
#	150
#	11778
#	26787
#	43109
#	57460
#	78324
#	93378
#	111289
#	122965
#
# Disc length: 1863 seconds
#
# Revision: 2
# Processed by: cddbd v1.5.2PL0 Copyright (c) Steve Scherf et al.
# Submitted via: CDex 1.51
#
DISCID=79074509
DTITLE=Lizzie Watkins - Somehow
DYEAR=2005
DGENRE=Folk
TTITLE0=Agree To Disagree
TTITLE1=Waitin' On You
TTITLE2=Somehow
TTITLE3=Together Alone
TTITLE4=I Did It For You
TTITLE5=Brothers And Sisters
TTITLE6=Goodbye Indiana
TTITLE7=Lesson
TTITLE8=Water Is Wide
EXTD=YEAR: 2005
EXTT0=
EXTT1=
EXTT2=
EXTT3=
EXTT4=
EXTT5=
EXTT6=
EXTT7=
EXTT8=
PLAYORDER=
